<?xml version="1.0" encoding="UTF-8" standalone="no"?>
<svg
   xmlns:dc="http://purl.org/dc/elements/1.1/"
   xmlns:cc="http://creativecommons.org/ns#"
   xmlns:rdf="http://www.w3.org/1999/02/22-rdf-syntax-ns#"
   xmlns:svg="http://www.w3.org/2000/svg"
   xmlns="http://www.w3.org/2000/svg"
   xmlns:xlink="http://www.w3.org/1999/xlink"
   xmlns:sodipodi="http://sodipodi.sourceforge.net/DTD/sodipodi-0.dtd"
   xmlns:inkscape="http://www.inkscape.org/namespaces/inkscape"
   sodipodi:docname="biohazard.svg"
   inkscape:version="1.0beta2 (2b71d25, 2019-12-03)"
   id="svg3069"
   height="312.97156"
   width="331.10529"
   version="1.1">
  <metadata
     id="metadata3085">
    <rdf:RDF>
      <cc:Work
         rdf:about="">
        <dc:format>image/svg+xml</dc:format>
        <dc:type
           rdf:resource="http://purl.org/dc/dcmitype/StillImage" />
        <dc:title></dc:title>
      </cc:Work>
    </rdf:RDF>
  </metadata>
  <sodipodi:namedview
     fit-margin-bottom="0"
     fit-margin-right="0"
     fit-margin-left="0"
     fit-margin-top="0"
     inkscape:document-rotation="0"
     inkscape:current-layer="g3396"
     inkscape:window-maximized="1"
     inkscape:window-y="23"
     inkscape:window-x="0"
     inkscape:cy="92.485782"
     inkscape:cx="165.55265"
     inkscape:zoom="0.95047619"
     showgrid="false"
     id="namedview3083"
     inkscape:window-height="786"
     inkscape:window-width="1440"
     inkscape:pageshadow="2"
     inkscape:pageopacity="0"
     guidetolerance="10"
     gridtolerance="10"
     objecttolerance="10"
     borderopacity="1"
     bordercolor="#666666"
     pagecolor="#ffffff" />
  <defs
     id="defs3073">
    <path
       inkscape:connector-curvature="0"
       transform="matrix(10,0,0,-10,260,260)"
       id="p"
       d="M 2.8117,-1.046 A 3,3 0 0 1 0.5,2.958 V 4.5119 A 10.5,10.5 0 0 1 2,25.3078 v 0.5583 A 15,15 0 0 0 14.7975,8.5433 15,15 0 0 0 23.4007,-11.201 l -0.4835,0.2792 A 10.5,10.5 0 0 1 4.1574,-1.8229 Z m 3.4148,8.871 a 10,10 0 0 1 -12.453,0 9.5,9.5 0 0 0 -2.1756,2.7417 13.5,13.5 0 0 0 16.8042,0 A 10,10 0 0 0 6.2265,7.825 Z" />
  </defs>
  <g
     transform="translate(-134.44735,-170.01422)"
     id="g3396">
    <g
       id="biohazard"
       transform="matrix(0.675,0,0,0.675,124.50005,169.1104)">
      <use
         xlink:href="#p"
         id="use3341"
         x="0"
         y="0"
         width="1"
         height="1" />
      <use
         xlink:href="#p"
         transform="rotate(120,260,260)"
         id="use3343"
         x="0"
         y="0"
         width="1"
         height="1" />
      <use
         xlink:href="#p"
         transform="rotate(-120,260,260)"
         id="use3345"
         x="0"
         y="0"
         width="1"
         height="1" />
    </g>
  </g>
</svg>
